PathFileType	4	(X/Y/Z)	C:/Users/opensim2020/Desktop/walking_exp_matlab/subject01_walking05_straight_02.trc	
DataRate	CameraRate	NumFrames	NumMarkers	Units	OrigDataRate	OrigDataStartFrame	OrigNumFrames	
100.00	100.00	4	43	mm	100.00	1604	205	
Frame#	Time	LFHD			RFHD			LBHD			RBHD			C7			T10			CLAV			STRN			RBAK			LSHO			LUPA			LELB			LFRM			LWRA			LWRB			LFIN			RSHO			RUPA			RELB			RFRM			RWRA			RWRB			RFIN			LASI			RASI			LPSI			RPSI			LTHI			LKNE			LTIB			LANK			LHEE			LTOE			RTHI			RKNE			RTIB			RANK			RHEE			RTOE			*39			*40			*41			*42			
		X1	Y1	Z1	X2	Y2	Z2	X3	Y3	Z3	X4	Y4	Z4	X5	Y5	Z5	X6	Y6	Z6	X7	Y7	Z7	X8	Y8	Z8	X9	Y9	Z9	X10	Y10	Z10	X11	Y11	Z11	X12	Y12	Z12	X13	Y13	Z13	X14	Y14	Z14	X15	Y15	Z15	X16	Y16	Z16	X17	Y17	Z17	X18	Y18	Z18	X19	Y19	Z19	X20	Y20	Z20	X21	Y21	Z21	X22	Y22	Z22	X23	Y23	Z23	X24	Y24	Z24	X25	Y25	Z25	X26	Y26	Z26	X27	Y27	Z27	X28	Y28	Z28	X29	Y29	Z29	X30	Y30	Z30	X31	Y31	Z31	X32	Y32	Z32	X33	Y33	Z33	X34	Y34	Z34	X35	Y35	Z35	X36	Y36	Z36	X37	Y37	Z37	X38	Y38	Z38	X39	Y39	Z39	X40	Y40	Z40	X41	Y41	Z41	X42	Y42	Z42	X43	Y43	Z43	

129	1.280	1537.07214	-172.40477	1663.74084	1424.02661	-187.64670	1673.28369	1525.94519	-54.72528	1621.88477	1405.44250	-67.54184	1631.08447	1473.84326	-8.66911	1432.18958	1452.75378	26.75046	1138.51245	1474.40735	-153.62460	1361.93848	1472.40796	-194.11604	1208.52979	1387.02185	44.05440	1240.17346	1634.30493	-83.55785	1385.14844	1711.71326	-54.30592	1198.66333	1711.83203	-46.40895	1047.71948	1746.65820	-86.49035	944.52783	1744.85181	-173.58005	833.70715	1761.20972	-115.21299	826.59412	1779.79883	-165.50111	760.38293	1321.49268	-92.54088	1398.82910	1213.15234	-23.61471	1207.58398	1204.03589	-15.14627	1082.54968	1167.55933	-43.72500	966.12390	1179.77734	-127.08389	850.59949	1140.85840	-83.55760	852.33453	1141.57654	-120.99970	774.50323	1556.66699	-148.36838	933.16443	1339.93384	-147.09116	934.42993	1503.85693	38.38002	943.97650	1358.77612	35.89664	944.40668	1599.69653	-135.46262	600.61188	1575.44897	-136.39964	466.78717	1578.81909	-85.07904	282.45688	1517.26624	-54.92710	68.63191	1462.97327	-10.86024	39.97978	1522.35742	-202.90446	33.25033	1273.39905	-159.11508	604.67194	1290.35876	-186.11261	449.56818	1291.84106	-44.49144	346.12561	1341.75134	99.60162	200.64610	1399.45471	153.82701	202.00980	1330.92578	37.78418	72.15141	1447.95984	-175.47887	1706.22168	-3101.94458	1973.01196	1023.37207	-3140.70898	2012.47534	1021.92358			 
130	1.290	1537.12927	-182.78397	1663.87732	1424.01855	-197.84030	1673.15552	1526.27222	-64.88857	1622.57507	1405.67615	-77.54806	1631.61621	1474.31287	-17.94068	1432.63977	1453.56360	17.72433	1138.93225	1474.75403	-162.56494	1362.04431	1473.12146	-203.09636	1208.76929	1387.67175	34.97419	1240.63123	1634.69543	-92.88911	1385.85339	1713.02332	-64.93752	1199.60913	1713.98584	-59.01010	1048.33691	1749.33838	-102.31384	946.38306	1748.30273	-192.85419	838.53552	1764.31592	-134.95021	829.42371	1783.87097	-187.02193	765.37317	1321.84729	-101.66527	1399.07251	1214.25171	-31.56852	1207.78882	1205.85681	-22.36429	1082.79041	1169.61462	-49.67394	965.99707	1182.22815	-131.64424	849.36108	1143.34424	-88.18442	851.80237	1144.37402	-124.42088	773.15271	1557.96912	-156.89116	933.39227	1341.34888	-156.29233	935.37402	1503.97266	29.62169	944.39941	1358.77991	26.53976	945.20587	1599.94031	-140.38464	600.19287	1575.75854	-139.59326	466.37314	1578.94092	-86.70152	282.37729	1517.00696	-55.41016	68.66933	1462.79358	-11.00372	40.04744	1522.31409	-203.16136	33.11543	1274.57239	-173.35506	606.62494	1292.22888	-202.51602	452.10464	1292.99719	-63.50552	344.59653	1342.32031	75.93504	194.85365	1399.32141	131.30070	193.65387	1331.74561	7.22516	69.96040	1447.92834	-185.86987	1706.13708	-3101.74878	1973.05994	1023.85089	-3140.56787	2012.53442	1021.93738			 
131	1.300	1537.08838	-193.10184	1663.88196	1423.98584	-208.06267	1673.03076	1526.45337	-75.03185	1623.18347	1405.85144	-87.51492	1632.00073	1474.79248	-27.18922	1433.04639	1454.44409	8.73629	1139.28198	1475.18665	-171.78024	1362.31714	1473.79126	-212.01253	1208.85205	1388.44543	26.02288	1241.04688	1635.08752	-102.23722	1386.45886	1714.39233	-75.49125	1200.51611	1716.07739	-71.51426	1048.88989	1751.94568	-117.88035	948.27600	1751.65125	-211.94406	843.53949	1767.39966	-154.34447	832.54700	1787.82568	-208.31578	770.62128	1322.35291	-110.73335	1399.14343	1215.45093	-39.43185	1207.88745	1207.55310	-29.67297	1082.88074	1171.55542	-55.63352	965.75604	1184.66846	-135.95230	847.99414	1145.44568	-92.84105	850.97357	1146.93616	-127.86894	771.82983	1559.22351	-165.34831	933.39270	1342.70532	-165.41809	936.10321	1504.16943	20.92306	944.78992	1358.83801	17.24043	945.77692	1600.17834	-145.32047	599.77197	1576.14941	-142.50345	465.86942	1579.29504	-87.62764	282.50568	1516.93408	-55.64220	68.78411	1462.71765	-11.11895	40.20949	1522.25635	-203.27902	32.86285	1275.92627	-187.00294	608.83862	1294.05286	-218.59273	454.51904	1294.28076	-83.07117	342.45074	1342.86646	51.61463	188.23671	1399.25464	107.60187	184.10034	1332.51318	-23.84284	67.55567	1447.83020	-196.26065	1706.13525	-3101.84448	1973.02197	1023.32599	-3140.55688	2012.57312	1021.93231			 
132	1.310	1536.91077	-203.34836	1663.96582	1423.78625	-218.11838	1672.82080	1526.57202	-85.07786	1623.75403	1405.93945	-97.42606	1632.29199	1475.38708	-36.51950	1433.47229	1455.30322	-0.35639	1139.53577	1475.35132	-179.96841	1361.99963	1474.46387	-221.13000	1209.05786	1389.23865	16.93594	1241.31360	1635.42615	-111.62625	1386.96301	1715.71667	-85.95848	1201.34290	1718.01013	-83.87984	1049.41553	1754.44836	-133.28891	950.21368	1754.90259	-230.82846	848.75397	1770.37854	-173.56172	835.85577	1791.58801	-229.50029	776.09436	1322.76147	-119.82590	1399.17993	1216.58557	-47.36737	1207.79346	1209.21716	-36.96570	1082.88464	1173.52576	-61.47610	965.37848	1186.73975	-140.69847	846.77020	1147.60547	-97.49926	850.12994	1149.31042	-131.29622	770.49982	1560.38623	-173.75737	933.33014	1343.99060	-174.56102	936.82825	1504.43713	12.26810	945.08612	1358.90674	8.02126	946.17407	1600.45020	-150.30159	599.35553	1576.59839	-145.21080	465.37030	1579.51624	-88.60332	282.54974	1516.83655	-55.79127	68.88789	1462.63538	-11.21892	40.53823	1522.24915	-203.43573	32.81023	1276.86194	-200.51930	610.63800	1296.03284	-234.32558	456.82385	1295.38037	-102.73090	339.74088	1343.47986	26.63747	180.80513	1399.87415	83.57097	174.36491	1333.34790	-54.91462	64.71384	1447.57300	-206.64322	1705.99390	-3101.94116	1973.04248	1023.41980	-3140.64209	2012.50061	1022.00806			 
